PathFileType	4	(X/Y/Z)	C:\Users\WrightLab\Desktop\Jo\P3_21.trc
DataRate	CameraRate	NumFrames	NumMarkers	Units	OrigDataRate	OrigDataStartFrame	OrigNumFrames
100.00	100.00	       24	19	mm	100.00	77	       614
Frame#	Time	Headset_Front			Headset_Back			Headset_Left			Headset_Right			Left_Shoulder			Right_Shoulder			Sternum			C7			Left Elbow			Right Elbow			Left Wrist			Right Wrist			Left ASIS			Right ASIS			S2			Left Knee			Right Knee			Left Ankle			Right Ankle			
		X1	Y1	Z1	X2	Y2	Z2	X3	Y3	Z3	X4	Y4	Z4	X5	Y5	Z5	X6	Y6	Z6	X7	Y7	Z7	X8	Y8	Z8	X9	Y9	Z9	X10	Y10	Z10	X11	Y11	Z11	X12	Y12	Z12	X13	Y13	Z13	X14	Y14	Z14	X15	Y15	Z15	X16	Y16	Z16	X17	Y17	Z17	X18	Y18	Z18	X19	Y19	Z19	

77	0.760				7.11026	1673.83472	1962.81909	-122.37133	1590.23901	1904.55090				-180.95131	1380.27344	1955.17480	167.43942	1389.72009	2025.82800				-14.99274	1441.56689	2041.67737	-282.94370	1086.02966	1844.31506	256.87476	1047.99670	2054.07544	-284.28262	964.52246	1677.02551	277.46835	888.68970	1893.58887	-87.37242	898.39606	1884.92053				-5.94945	985.88910	2115.40576	-81.04050	481.14929	1977.58069	194.08441	516.74017	1829.14331	-65.75788	162.34767	2072.04321	172.71794	200.59859	1953.70203	
78	0.770				7.88485	1673.04407	1953.58569	-121.37573	1589.06360	1895.63428				-179.53940	1379.46204	1947.37976	168.54259	1389.17175	2017.18176				-13.92951	1441.21716	2034.96667	-283.15927	1086.46082	1837.27844	258.76913	1048.12549	2047.25122	-285.59085	964.84271	1670.05701	278.77280	888.35590	1885.92212	-86.57072	898.07867	1879.28125				-3.28477	985.75977	2108.94971	-81.22518	481.23364	1974.81067	195.13602	517.47723	1819.81824	-65.69260	162.57811	2071.83496	179.12946	193.18794	1926.39429	
79	0.780				8.62039	1672.40063	1946.87488	-120.27294	1588.30969	1889.01147				-177.87404	1378.86694	1939.79126	169.04279	1388.81604	2010.14001				-12.68041	1440.58069	2026.65833	-282.75171	1086.70569	1828.63965	260.34937	1047.07898	2039.55457	-286.78101	966.81018	1662.27588	280.33810	888.66010	1879.27380	-85.85442	896.87408	1873.39453				-1.37671	984.55304	2101.22339	-80.35284	479.81467	1973.99927	197.07037	517.49219	1811.39539	-65.55379	162.82169	2071.59546	186.13188	187.44858	1899.71228	
80	0.790				9.54867	1671.53064	1939.12817	-119.22832	1587.10791	1879.90320				-176.66559	1378.16821	1932.77881	170.57957	1389.05310	2003.24536				-11.51327	1439.86511	2019.36243	-282.62131	1086.61670	1821.20203	261.15091	1047.77771	2034.17358	-287.71783	967.16449	1652.36768	281.40491	889.03906	1871.33557	-85.12405	895.81445	1867.70044				0.94165	983.87421	2094.12134	-80.15685	479.71585	1973.43909	197.89162	517.42749	1805.15479	-65.50778	163.15054	2071.31616	192.04027	182.82178	1871.77991	
81	0.800				10.49181	1670.56812	1929.63147	-118.61052	1585.95349	1873.82568				-175.53003	1377.76892	1925.30896	171.93742	1388.22620	1994.12085				-10.10763	1439.27271	2012.12207	-282.70770	1086.51807	1812.96277	262.92404	1046.63989	2026.18652	-288.71927	967.76257	1643.36426	283.32111	888.26105	1864.87939	-84.09694	895.17572	1861.58997				3.16012	983.60223	2087.86816	-79.95448	479.33298	1971.52747	198.81839	516.45801	1796.65283	-65.35858	163.39618	2070.91675	198.51355	179.16319	1845.95276	
82	0.810				11.38435	1669.49316	1923.42175	-117.76669	1584.99402	1865.65747				-173.65213	1376.56213	1919.20215	173.47194	1387.23865	1986.31152				-8.80628	1438.40967	2003.86499	-281.56699	1086.39880	1805.11633	264.69049	1046.04358	2019.51672	-289.75201	968.43634	1636.12439	284.78058	887.89929	1857.03796	-83.06348	893.78845	1855.31396				5.52341	982.62408	2080.11963	-79.50885	478.96329	1970.30115	199.84109	514.47046	1790.56531	-65.28357	163.60139	2070.64502	204.60432	176.40277	1820.43225	
83	0.820				12.48487	1669.16833	1915.43005	-116.92663	1583.70984	1858.33740				-172.47838	1375.20679	1911.15283	174.99654	1386.33533	1978.64636				-7.25554	1437.31726	1996.92407	-281.58514	1085.90295	1797.84534	266.27087	1045.26807	2012.08594	-290.81723	968.71613	1628.21826	286.33173	887.62964	1850.51831	-82.72205	893.74670	1848.49268				8.10394	981.56958	2072.66040	-79.24472	478.67203	1966.86633	200.81874	512.76959	1783.80420	-65.15368	163.73953	2070.05640	210.36620	174.50948	1794.67102	
84	0.830				13.55186	1667.12488	1906.66113	-115.96342	1583.12732	1851.66174				-170.52000	1373.45544	1904.43481	176.74580	1384.93298	1969.32861				-5.81016	1435.91528	1988.83435	-280.97672	1086.12671	1789.76343	267.68774	1044.57861	2005.45020	-291.35068	969.22955	1620.33508	288.24805	886.85364	1844.09143	-81.99618	891.51624	1844.52026				10.83508	980.60413	2065.83862	-78.30361	478.51746	1962.99890	201.77705	510.89346	1777.94910	-65.08060	163.95641	2069.58838	215.95262	172.76648	1770.39612	
85	0.840				14.94555	1666.29395	1899.48474	-114.59243	1581.13318	1842.84485				-168.94913	1372.75964	1897.92639	178.53699	1384.17725	1962.10938				-3.59793	1435.16638	1981.74670	-280.43875	1085.14160	1781.98962	269.37308	1044.25500	1998.35083	-292.38272	969.90698	1612.37048	289.65375	886.68439	1833.96387	-81.37746	891.56183	1834.63965				13.33302	979.37408	2057.88989	-77.66694	478.33179	1960.61023	202.74402	509.10959	1770.05713	-64.90870	164.28177	2068.93359	221.31071	173.81352	1746.79309	
86	0.850				16.05413	1664.53247	1890.82739	-113.39395	1579.29858	1836.26782				-167.54538	1370.82996	1890.33228	180.03220	1382.94397	1952.50549				-2.21195	1433.71057	1973.79626	-280.01459	1084.79016	1775.08301	271.38989	1043.20483	1990.63855	-292.70520	969.45905	1603.12207	291.38354	886.49878	1826.48035	-80.36738	889.87231	1828.45386				15.73162	977.81653	2050.12695	-77.89457	478.09558	1956.55127	203.93123	507.40295	1765.14050	-64.80405	164.50443	2068.38281	226.07309	174.60594	1724.37634	
87	0.860				17.24664	1663.38550	1883.02417	-112.62840	1577.93860	1828.41345				-165.81227	1370.12512	1885.05408	181.80540	1381.94434	1945.47412				-0.09035	1432.03735	1966.22949	-279.38861	1084.23364	1768.40808	273.23911	1042.18091	1984.15710	-293.87601	969.67065	1595.14063	293.45090	885.61407	1818.36218	-79.55710	888.28735	1822.53870				19.49838	976.41492	2042.49268	-76.87524	476.53546	1954.16980	205.28529	505.79846	1758.14563	-64.65110	164.73721	2067.84937	229.94855	175.41393	1704.07434	
88	0.870				19.14370	1662.01208	1875.33887	-111.01200	1576.24084	1821.32922				-163.99329	1367.69080	1877.55676	183.88217	1380.34570	1936.68762				1.90813	1430.62781	1958.63586	-278.67255	1083.19763	1759.84143	275.47101	1041.11255	1975.64331	-294.55557	969.44238	1587.96655	295.36200	883.79572	1811.09338	-79.18265	887.79755	1815.75427				21.91373	975.07977	2035.27722	-76.61812	476.89484	1949.53625	207.09650	504.14850	1751.56360	-65.89511	164.72546	2069.56128	232.84160	177.04437	1684.38635	
89	0.880				19.92152	1660.75525	1866.49255	-110.01441	1574.59558	1813.04541				-162.38254	1365.66895	1870.06580	185.43875	1378.96936	1927.94519				3.43208	1429.21729	1951.46619	-278.27695	1082.74048	1752.31946	277.89001	1040.11230	1968.79761	-294.44226	969.81744	1580.13196	297.27954	883.47382	1802.52271	-78.19350	885.53101	1808.78125				25.25610	973.18274	2026.03186	-75.80291	476.13058	1946.51221	208.30199	502.22086	1744.45483	-65.52462	164.96448	2068.57935	235.78340	178.61104	1668.24670	
90	0.890				22.04305	1659.36609	1859.17773	-108.45580	1572.83533	1806.54480				-160.25809	1364.35498	1863.67017	187.61568	1378.60364	1920.29382				6.03371	1428.10413	1944.08411	-277.53149	1081.86719	1744.99646	280.12851	1038.46851	1959.75098	-295.43814	969.33331	1572.57373	299.34717	881.90558	1796.38892	-77.12936	884.37732	1800.73047				28.59632	972.07471	2018.18958	-74.45039	474.65152	1941.39771	210.39542	501.10178	1737.93201	-65.38629	165.06458	2068.14746	238.04039	179.33061	1653.60608	
91	0.900				22.80289	1658.17920	1850.72412	-107.39305	1571.28491	1798.73242				-158.67186	1362.25085	1857.05322	189.47534	1376.45374	1910.64941				7.80098	1426.29321	1935.75916	-276.38266	1081.46069	1739.00220	282.84985	1037.98767	1953.05957	-296.72202	969.05334	1564.25916	301.48697	881.72339	1786.27808	-76.05847	883.60181	1794.87000				31.91300	971.20892	2011.13318	-73.55481	474.84958	1936.91736	211.59126	500.34415	1730.69080	-64.99079	166.01996	2065.97144	239.83308	179.85867	1642.87598	
92	0.910				24.82030	1656.27795	1842.56140	-105.60379	1569.97766	1791.14832				-156.75336	1360.57202	1848.99670	191.55609	1375.50024	1903.20740				10.27201	1424.84131	1928.11621	-275.37225	1080.07520	1730.30957	285.30237	1036.27368	1943.20349	-297.41199	968.87134	1557.49512	303.44537	880.37488	1778.37170	-75.00615	881.94269	1786.02136				35.45575	969.59570	2001.77271	-72.07446	473.29898	1932.80505	213.56042	498.86325	1722.01196	-64.66382	166.38048	2065.75952	241.65485	179.25606	1631.10181	
93	0.920				25.70189	1655.48145	1834.83411	-104.41925	1568.48547	1784.25500				-154.83507	1359.52051	1843.19250	193.48903	1374.12573	1893.30542				11.77055	1423.66516	1920.41846	-274.49020	1077.01855	1719.61694	288.19989	1035.90332	1935.71155	-298.40631	968.05109	1549.67371	305.50970	879.34155	1770.29028	-73.29214	880.40173	1778.06824				38.23931	967.99475	1992.86316	-71.02991	473.08832	1928.55640	214.98117	497.67563	1712.39832	-64.15570	167.70695	2062.56641	243.20801	177.56934	1622.95630	
94	0.930				27.63393	1653.54077	1826.21667	-103.07073	1566.92554	1776.41284				-152.80316	1357.96204	1835.46069	196.19687	1372.75220	1884.67810				14.36739	1422.69958	1912.86536	-273.60153	1076.43628	1713.28955	290.74582	1034.35925	1926.53479	-298.44250	968.09082	1542.06665	307.96344	878.41754	1760.64355	-71.69840	878.34406	1772.66199				41.60912	967.15918	1985.42041	-69.37302	472.80377	1920.69690	216.50133	496.41031	1703.27649	-63.68254	168.57646	2061.40625	243.78610	174.47150	1616.60266	
95	0.940				29.49481	1653.17493	1818.01624	-101.44769	1565.98230	1769.81592				-150.99706	1356.16345	1827.63000	198.13475	1371.52698	1875.76038				16.82410	1421.35767	1904.75574	-273.62073	1077.35364	1709.46277	293.85187	1033.59778	1917.84167	-299.22577	967.86298	1535.61169	309.93857	877.23962	1752.63208	-69.80664	877.88208	1762.86279				44.76569	965.58868	1976.75195	-68.28156	472.39420	1915.81006	217.34029	495.48639	1692.69788	-63.27925	169.70425	2059.36548	244.97668	172.11241	1612.45349	
96	0.950				30.85685	1651.41492	1809.32654	-100.18043	1563.86816	1761.21497				-149.26469	1356.12500	1822.76660	200.61052	1370.76086	1866.59473				18.74374	1419.91846	1896.37048	-271.63443	1077.09314	1702.15784	296.58871	1032.82959	1908.67432	-299.77014	967.25647	1528.70776	312.54114	875.48010	1744.62134	-67.76868	876.68732	1755.39771				47.43600	964.56091	1967.45154	-66.70721	471.71820	1909.51904	218.42627	494.02020	1682.79968	-63.11444	170.76945	2058.52148	245.57663	168.18629	1610.44299	
97	0.960				33.07636	1650.76379	1801.18567	-98.36895	1562.95935	1754.43188				-146.60501	1355.29321	1815.85303	202.80859	1370.02917	1858.20020				21.91746	1418.92212	1888.44116	-270.36368	1073.35645	1692.25281	299.58350	1032.03027	1899.27661	-300.12683	967.33722	1521.81018	315.05103	874.79114	1735.97595	-65.20356	875.55408	1746.05933				50.51956	963.75342	1959.54675	-65.10798	471.63663	1904.48779	219.42766	492.98929	1671.92432	-63.31301	172.96310	2056.28564	245.57663	163.48671	1608.10547	
98	0.970				34.17467	1648.88965	1792.41919	-97.20239	1561.10059	1745.85486				-144.76085	1353.88586	1807.37280	205.19763	1368.71973	1847.84570				23.88823	1417.62769	1879.40601	-269.29932	1072.72778	1685.56213	302.61066	1032.95276	1892.41125	-300.91241	966.92340	1514.80188	316.68491	874.66022	1725.97742	-63.21329	874.97333	1735.43542				53.08392	961.91949	1949.21643	-63.65331	471.17859	1898.70715	220.38013	491.16098	1663.58032	-62.80468	174.35959	2054.94092	245.74077	160.68050	1604.83411	
99	0.980				36.47125	1648.45715	1784.45911	-95.37568	1560.89551	1739.39709				-141.96252	1352.78992	1800.28174	207.59741	1368.57373	1840.14783				26.47008	1417.02026	1871.84912	-268.09946	1072.69983	1679.28442	305.70047	1031.29614	1882.22327	-301.77423	966.84631	1508.46912	319.55090	872.99573	1718.18213	-60.28827	874.33270	1727.85388				56.28305	961.25488	1940.79919	-62.18897	471.38312	1893.51733	220.58745	489.44513	1653.81592	-62.75900	176.24529	2052.55859	244.20041	160.04527	1596.62366	
100	0.990				38.03437	1647.90320	1774.02991	-93.98882	1559.70349	1730.53296				-140.05423	1351.99023	1792.43616	209.88728	1367.40869	1829.46436				29.41412	1416.90820	1863.09338	-267.12234	1071.38550	1671.84937	309.14862	1031.60901	1874.19836	-302.32971	966.42139	1501.73474	322.03125	872.61810	1707.50000	-57.57322	872.76288	1721.02466				59.32021	959.83691	1930.04749	-60.56731	471.91727	1884.16101	220.85620	487.78009	1644.50891	-62.10032	177.96078	2049.35181	242.68765	160.26018	1590.09131	
